# This file uses centimeters as units for non-parametric coordinates.

mtllib platform.mtl
v -0.284645 -0.103080 0.284644
v 0.284645 -0.103080 0.284644
v -0.284645 0.019705 0.284644
v 0.284645 0.019705 0.284644
v -0.284645 0.019705 -0.284645
v 0.284645 0.019705 -0.284645
v -0.284645 -0.103080 -0.284645
v 0.284645 -0.103080 -0.284645
v -0.304220 -0.070781 0.304220
v 0.304220 -0.070781 0.304220
v 0.304220 -0.012594 0.304220
v -0.304220 -0.012594 0.304220
v -0.304220 -0.012594 -0.304220
v 0.304220 -0.012594 -0.304220
v 0.304220 -0.070781 -0.304220
v -0.304220 -0.070781 -0.304220
v -0.062120 -0.661663 -0.062120
v 0.062120 -0.661663 -0.062120
v 0.062120 -0.661663 0.062120
v -0.062120 -0.661663 0.062120
v -0.062120 -0.715229 -0.062120
v 0.062120 -0.715229 -0.062120
v 0.062120 -0.715229 0.062120
v -0.062120 -0.715229 0.062120
v -0.062120 -6.584240 -0.062120
v 0.062120 -6.584240 -0.062120
v 0.062120 -6.584240 0.062120
v -0.062120 -6.584240 0.062120
vt 0.375000 0.000000
vt 0.625000 0.000000
vt 0.375000 0.250000
vt 0.625000 0.250000
vt 0.375000 0.500000
vt 0.625000 0.500000
vt 0.375000 0.750000
vt 0.625000 0.750000
vt 0.375000 1.000000
vt 0.625000 1.000000
vt 0.875000 0.000000
vt 0.875000 0.250000
vt 0.125000 0.000000
vt 0.125000 0.250000
vt 0.375000 0.000000
vt 0.625000 0.000000
vt 0.625000 0.250000
vt 0.375000 0.250000
vt 0.375000 0.500000
vt 0.625000 0.500000
vt 0.625000 0.750000
vt 0.375000 0.750000
vt 0.875000 0.000000
vt 0.875000 0.250000
vt 0.125000 0.000000
vt 0.125000 0.250000
vt 0.375000 0.750000
vt 0.625000 0.750000
vt 0.625000 1.000000
vt 0.375000 1.000000
vt 0.375000 0.750000
vt 0.625000 0.750000
vt 0.625000 1.000000
vt 0.375000 1.000000
vt 0.375000 0.750000
vt 0.625000 0.750000
vt 0.625000 1.000000
vt 0.375000 1.000000
vn 0.000000 0.000000 1.000000
vn 0.000000 0.000000 1.000000
vn 0.000000 0.000000 1.000000
vn 0.000000 0.000000 1.000000
vn 0.000000 1.000000 0.000000
vn 0.000000 1.000000 0.000000
vn 0.000000 1.000000 0.000000
vn 0.000000 1.000000 0.000000
vn 0.000000 0.000000 -1.000000
vn 0.000000 0.000000 -1.000000
vn 0.000000 0.000000 -1.000000
vn 0.000000 0.000000 -1.000000
vn 0.000000 -1.000000 0.000000
vn 0.000000 -1.000000 0.000000
vn 0.000000 -1.000000 0.000000
vn 0.000000 -1.000000 0.000000
vn 1.000000 0.000000 0.000000
vn 1.000000 0.000000 0.000000
vn 1.000000 0.000000 0.000000
vn 1.000000 0.000000 0.000000
vn -1.000000 0.000000 0.000000
vn -1.000000 0.000000 0.000000
vn -1.000000 0.000000 0.000000
vn -1.000000 0.000000 0.000000
vn 0.000000 -0.445737 0.895164
vn 0.000000 -0.445737 0.895164
vn 0.000000 -0.518326 0.855183
vn 0.000000 -0.518326 0.855183
vn 0.000000 0.518337 0.855177
vn 0.000000 0.518337 0.855177
vn 0.000000 0.518337 0.855177
vn 0.000000 0.518337 0.855177
vn 0.000000 0.518318 -0.855188
vn 0.000000 0.518318 -0.855188
vn 0.000000 0.518318 -0.855188
vn 0.000000 0.518318 -0.855188
vn 0.000000 -0.445727 -0.895169
vn 0.000000 -0.445727 -0.895169
vn 0.000000 -0.518307 -0.855195
vn 0.000000 -0.518307 -0.855195
vn 0.895169 -0.445727 0.000000
vn 0.895169 -0.445727 0.000000
vn 0.855195 -0.518307 0.000000
vn 0.855195 -0.518307 0.000000
vn 0.855188 0.518318 0.000000
vn 0.855188 0.518318 0.000000
vn 0.855188 0.518318 0.000000
vn 0.855188 0.518318 0.000000
vn -0.895169 -0.445727 0.000000
vn -0.895169 -0.445727 0.000000
vn -0.855195 -0.518307 0.000000
vn -0.855195 -0.518307 0.000000
vn -0.855188 0.518318 0.000000
vn -0.855188 0.518318 0.000000
vn -0.855188 0.518318 0.000000
vn -0.855188 0.518318 0.000000
vn 0.000000 -0.370088 -0.928997
vn 0.000000 -0.370088 -0.928997
vn 0.928997 -0.370088 0.000000
vn 0.928997 -0.370088 0.000000
vn 0.000000 -0.370086 0.928997
vn 0.000000 -0.370086 0.928997
vn -0.928997 -0.370088 0.000000
vn -0.928997 -0.370088 0.000000
vn 0.000000 0.000000 -1.000000
vn 0.000000 0.000000 -1.000000
vn 0.000000 0.000000 -1.000000
vn 0.000000 0.000000 -1.000000
vn 1.000000 0.000000 0.000000
vn 1.000000 0.000000 0.000000
vn 1.000000 0.000000 0.000000
vn 1.000000 0.000000 0.000000
vn 0.000000 0.000000 1.000000
vn 0.000000 0.000000 1.000000
vn 0.000000 0.000000 1.000000
vn 0.000000 0.000000 1.000000
vn -1.000000 0.000000 0.000000
vn -1.000000 0.000000 0.000000
vn -1.000000 0.000000 0.000000
vn -1.000000 0.000000 0.000000
vn 0.000000 0.000000 -1.000000
vn 0.000000 0.000000 -1.000000
vn 0.000000 0.000000 -1.000000
vn 0.000000 0.000000 -1.000000
vn 1.000000 0.000000 0.000000
vn 1.000000 0.000000 0.000000
vn 1.000000 0.000000 0.000000
vn 1.000000 0.000000 0.000000
vn 0.000000 0.000000 1.000000
vn 0.000000 0.000000 1.000000
vn 0.000000 0.000000 1.000000
vn 0.000000 0.000000 1.000000
vn -1.000000 0.000000 0.000000
vn -1.000000 0.000000 0.000000
vn -1.000000 0.000000 0.000000
vn -1.000000 0.000000 0.000000
usemtl initialShadingGroup
f 9/15/1 10/16/2 11/17/3 12/18/4
f 3/3/5 4/4/6 6/6/7 5/5/8
f 13/19/9 14/20/10 15/21/11 16/22/12
f 25/35/13 26/36/14 27/37/15 28/38/16
f 10/16/17 15/23/18 14/24/19 11/17/20
f 16/25/21 9/15/22 12/18/23 13/26/24
f 1/1/25 2/2/26 10/16/27 9/15/28
f 4/4/29 3/3/30 12/18/31 11/17/32
f 5/5/33 6/6/34 14/20/35 13/19/36
f 8/8/37 7/7/38 16/22/39 15/21/40
f 2/2/41 8/11/42 15/23/43 10/16/44
f 6/12/45 4/4/46 11/17/47 14/24/48
f 7/13/49 1/1/50 9/15/51 16/25/52
f 3/3/53 5/14/54 13/26/55 12/18/56
f 7/7/38 8/8/37 18/28/57 17/27/58
f 8/8/42 2/10/41 19/29/59 18/28/60
f 2/10/26 1/9/25 20/30/61 19/29/62
f 1/9/50 7/7/49 17/27/63 20/30/64
f 17/27/65 18/28/66 22/32/67 21/31/68
f 18/28/69 19/29/70 23/33/71 22/32/72
f 19/29/73 20/30/74 24/34/75 23/33/76
f 20/30/77 17/27/78 21/31/79 24/34/80
f 21/31/81 22/32/82 26/36/83 25/35/84
f 22/32/85 23/33/86 27/37/87 26/36/88
f 23/33/89 24/34/90 28/38/91 27/37/92
f 24/34/93 21/31/94 25/35/95 28/38/96
